<?xml version="1.0" encoding="UTF-8" standalone="no"?>
<!DOCTYPE svg PUBLIC "-//W3C//DTD SVG 1.1//EN"
 "http://www.w3.org/Graphics/SVG/1.1/DTD/svg11.dtd">
<!-- Generated by graphviz version 2.47.0 (20210316.0004)
 -->
<!-- Title: dependencies Pages: 1 -->
<svg width="2371pt" height="211pt"
 viewBox="0.00 0.00 2371.00 211.00" xmlns="http://www.w3.org/2000/svg" xmlns:xlink="http://www.w3.org/1999/xlink">
<g id="graph0" class="graph" transform="scale(1 1) rotate(0) translate(4 207)">
<title>dependencies</title>
<polygon fill="white" stroke="transparent" points="-4,4 -4,-207 2367,-207 2367,4 -4,4"/>
<text text-anchor="start" x="1160.51" y="-42.4" font-family="Times-12" font-weight="bold" font-size="14.00">Legend</text>
<polygon fill="#ffffb3" stroke="transparent" points="947.5,-10 947.5,-30 967.5,-30 967.5,-10 947.5,-10"/>
<text text-anchor="start" x="971.13" y="-15.4" font-family="Times-12" font-size="14.00"> &#160;Declarations</text>
<polygon fill="#8dd3c7" stroke="transparent" points="1060.5,-10 1060.5,-30 1080.5,-30 1080.5,-10 1060.5,-10"/>
<text text-anchor="start" x="1084.23" y="-15.4" font-family="Times-12" font-size="14.00"> &#160;Module</text>
<polygon fill="#80b1d3" stroke="transparent" points="1146.5,-10 1146.5,-30 1166.5,-30 1166.5,-10 1146.5,-10"/>
<text text-anchor="start" x="1170.28" y="-15.4" font-family="Times-12" font-size="14.00"> &#160;Bootstrap</text>
<polygon fill="#fdb462" stroke="transparent" points="1243.5,-10 1243.5,-30 1263.5,-30 1263.5,-10 1243.5,-10"/>
<text text-anchor="start" x="1267.17" y="-15.4" font-family="Times-12" font-size="14.00"> &#160;Providers</text>
<polygon fill="#fb8072" stroke="transparent" points="1339.5,-10 1339.5,-30 1359.5,-30 1359.5,-10 1339.5,-10"/>
<text text-anchor="start" x="1363.23" y="-15.4" font-family="Times-12" font-size="14.00"> &#160;Exports</text>
<g id="clust1" class="cluster">
<title>cluster_AppModule</title>
<polygon fill="none" stroke="black" stroke-dasharray="1,5" points="8,-70 8,-195 2355,-195 2355,-70 8,-70"/>
</g>
<g id="clust3" class="cluster">
<title>cluster_AppModule_imports</title>
<polygon fill="none" stroke="black" points="16,-78 16,-130 2347,-130 2347,-78 16,-78"/>
</g>
<!-- AuthModule -->
<g id="node1" class="node">
<title>AuthModule</title>
<polygon fill="#8dd3c7" stroke="black" points="2338.55,-122 2335.55,-126 2314.55,-126 2311.55,-122 2251.45,-122 2251.45,-86 2338.55,-86 2338.55,-122"/>
<text text-anchor="middle" x="2295" y="-99.8" font-family="Times,serif" font-size="14.00">AuthModule</text>
</g>
<!-- AppModule -->
<g id="node20" class="node">
<title>AppModule</title>
<polygon fill="#8dd3c7" stroke="black" points="1193.66,-187 1190.66,-191 1169.66,-191 1166.66,-187 1110.34,-187 1110.34,-151 1193.66,-151 1193.66,-187"/>
<text text-anchor="middle" x="1152" y="-164.8" font-family="Times,serif" font-size="14.00">AppModule</text>
</g>
<!-- AuthModule&#45;&gt;AppModule -->
<g id="edge1" class="edge">
<title>AuthModule&#45;&gt;AppModule</title>
<path fill="none" stroke="black" d="M2295,-122.15C2295,-145.76 2295,-184 2295,-184 2295,-184 1203.69,-184 1203.69,-184"/>
<polygon fill="black" stroke="black" points="1203.69,-180.5 1193.69,-184 1203.69,-187.5 1203.69,-180.5"/>
</g>
<!-- BlogCategoriesModule -->
<g id="node2" class="node">
<title>BlogCategoriesModule</title>
<polygon fill="#8dd3c7" stroke="black" points="2233.14,-122 2230.14,-126 2209.14,-126 2206.14,-122 2086.86,-122 2086.86,-86 2233.14,-86 2233.14,-122"/>
<text text-anchor="middle" x="2160" y="-99.8" font-family="Times,serif" font-size="14.00">BlogCategoriesModule</text>
</g>
<!-- BlogCategoriesModule&#45;&gt;AppModule -->
<g id="edge2" class="edge">
<title>BlogCategoriesModule&#45;&gt;AppModule</title>
<path fill="none" stroke="black" d="M2160,-122.01C2160,-144.49 2160,-180 2160,-180 2160,-180 1203.71,-180 1203.71,-180"/>
<polygon fill="black" stroke="black" points="1203.71,-176.5 1193.71,-180 1203.71,-183.5 1203.71,-176.5"/>
</g>
<!-- BlogsModule -->
<g id="node3" class="node">
<title>BlogsModule</title>
<polygon fill="#8dd3c7" stroke="black" points="2069.22,-122 2066.22,-126 2045.22,-126 2042.22,-122 1976.78,-122 1976.78,-86 2069.22,-86 2069.22,-122"/>
<text text-anchor="middle" x="2023" y="-99.8" font-family="Times,serif" font-size="14.00">BlogsModule</text>
</g>
<!-- BlogsModule&#45;&gt;AppModule -->
<g id="edge3" class="edge">
<title>BlogsModule&#45;&gt;AppModule</title>
<path fill="none" stroke="black" d="M2023,-122.04C2023,-143.66 2023,-177 2023,-177 2023,-177 1203.72,-177 1203.72,-177"/>
<polygon fill="black" stroke="black" points="1203.72,-173.5 1193.72,-177 1203.72,-180.5 1203.72,-173.5"/>
</g>
<!-- BrandsModule -->
<g id="node4" class="node">
<title>BrandsModule</title>
<polygon fill="#8dd3c7" stroke="black" points="1958.71,-122 1955.71,-126 1934.71,-126 1931.71,-122 1859.29,-122 1859.29,-86 1958.71,-86 1958.71,-122"/>
<text text-anchor="middle" x="1909" y="-99.8" font-family="Times,serif" font-size="14.00">BrandsModule</text>
</g>
<!-- BrandsModule&#45;&gt;AppModule -->
<g id="edge4" class="edge">
<title>BrandsModule&#45;&gt;AppModule</title>
<path fill="none" stroke="black" d="M1909,-122.13C1909,-142.57 1909,-173 1909,-173 1909,-173 1203.78,-173 1203.78,-173"/>
<polygon fill="black" stroke="black" points="1203.78,-169.5 1193.78,-173 1203.78,-176.5 1203.78,-169.5"/>
</g>
<!-- CartsModule -->
<g id="node5" class="node">
<title>CartsModule</title>
<polygon fill="#8dd3c7" stroke="black" points="1841.6,-122 1838.6,-126 1817.6,-126 1814.6,-122 1752.4,-122 1752.4,-86 1841.6,-86 1841.6,-122"/>
<text text-anchor="middle" x="1797" y="-99.8" font-family="Times,serif" font-size="14.00">CartsModule</text>
</g>
<!-- CartsModule&#45;&gt;AppModule -->
<g id="edge5" class="edge">
<title>CartsModule&#45;&gt;AppModule</title>
<path fill="none" stroke="black" d="M1797,-122.11C1797,-141.34 1797,-169 1797,-169 1797,-169 1203.82,-169 1203.82,-169"/>
<polygon fill="black" stroke="black" points="1203.82,-165.5 1193.82,-169 1203.82,-172.5 1203.82,-165.5"/>
</g>
<!-- CategoriesModule -->
<g id="node6" class="node">
<title>CategoriesModule</title>
<polygon fill="#8dd3c7" stroke="black" points="1734.92,-122 1731.92,-126 1710.92,-126 1707.92,-122 1615.08,-122 1615.08,-86 1734.92,-86 1734.92,-122"/>
<text text-anchor="middle" x="1675" y="-99.8" font-family="Times,serif" font-size="14.00">CategoriesModule</text>
</g>
<!-- CategoriesModule&#45;&gt;AppModule -->
<g id="edge6" class="edge">
<title>CategoriesModule&#45;&gt;AppModule</title>
<path fill="none" stroke="black" d="M1675,-122.27C1675,-140.56 1675,-166 1675,-166 1675,-166 1203.92,-166 1203.92,-166"/>
<polygon fill="black" stroke="black" points="1203.92,-162.5 1193.92,-166 1203.92,-169.5 1203.92,-162.5"/>
</g>
<!-- CloudinaryModule -->
<g id="node7" class="node">
<title>CloudinaryModule</title>
<polygon fill="#8dd3c7" stroke="black" points="1597.04,-122 1594.04,-126 1573.04,-126 1570.04,-122 1474.96,-122 1474.96,-86 1597.04,-86 1597.04,-122"/>
<text text-anchor="middle" x="1536" y="-99.8" font-family="Times,serif" font-size="14.00">CloudinaryModule</text>
</g>
<!-- CloudinaryModule&#45;&gt;AppModule -->
<g id="edge7" class="edge">
<title>CloudinaryModule&#45;&gt;AppModule</title>
<path fill="none" stroke="black" d="M1536,-122.03C1536,-139.06 1536,-162 1536,-162 1536,-162 1203.83,-162 1203.83,-162"/>
<polygon fill="black" stroke="black" points="1203.83,-158.5 1193.83,-162 1203.83,-165.5 1203.83,-158.5"/>
</g>
<!-- ColorsModule -->
<g id="node8" class="node">
<title>ColorsModule</title>
<polygon fill="#8dd3c7" stroke="black" points="1456.38,-122 1453.38,-126 1432.38,-126 1429.38,-122 1359.62,-122 1359.62,-86 1456.38,-86 1456.38,-122"/>
<text text-anchor="middle" x="1408" y="-99.8" font-family="Times,serif" font-size="14.00">ColorsModule</text>
</g>
<!-- ColorsModule&#45;&gt;AppModule -->
<g id="edge8" class="edge">
<title>ColorsModule&#45;&gt;AppModule</title>
<path fill="none" stroke="black" d="M1408,-122.01C1408,-138.05 1408,-159 1408,-159 1408,-159 1203.7,-159 1203.7,-159"/>
<polygon fill="black" stroke="black" points="1203.7,-155.5 1193.7,-159 1203.7,-162.5 1203.7,-155.5"/>
</g>
<!-- ComparesModule -->
<g id="node9" class="node">
<title>ComparesModule</title>
<polygon fill="#8dd3c7" stroke="black" points="1341.31,-122 1338.31,-126 1317.31,-126 1314.31,-122 1224.69,-122 1224.69,-86 1341.31,-86 1341.31,-122"/>
<text text-anchor="middle" x="1283" y="-99.8" font-family="Times,serif" font-size="14.00">ComparesModule</text>
</g>
<!-- ComparesModule&#45;&gt;AppModule -->
<g id="edge9" class="edge">
<title>ComparesModule&#45;&gt;AppModule</title>
<path fill="none" stroke="black" d="M1283,-122.12C1283,-136.78 1283,-155 1283,-155 1283,-155 1203.81,-155 1203.81,-155"/>
<polygon fill="black" stroke="black" points="1203.81,-151.5 1193.81,-155 1203.81,-158.5 1203.81,-151.5"/>
</g>
<!-- CouponsModule -->
<g id="node10" class="node">
<title>CouponsModule</title>
<polygon fill="#8dd3c7" stroke="black" points="1206.83,-122 1203.83,-126 1182.83,-126 1179.83,-122 1097.17,-122 1097.17,-86 1206.83,-86 1206.83,-122"/>
<text text-anchor="middle" x="1152" y="-99.8" font-family="Times,serif" font-size="14.00">CouponsModule</text>
</g>
<!-- CouponsModule&#45;&gt;AppModule -->
<g id="edge10" class="edge">
<title>CouponsModule&#45;&gt;AppModule</title>
<path fill="none" stroke="black" d="M1152,-122.11C1152,-122.11 1152,-140.99 1152,-140.99"/>
<polygon fill="black" stroke="black" points="1148.5,-140.99 1152,-150.99 1155.5,-140.99 1148.5,-140.99"/>
</g>
<!-- EnquiriesModule -->
<g id="node11" class="node">
<title>EnquiriesModule</title>
<polygon fill="#8dd3c7" stroke="black" points="1079.7,-122 1076.7,-126 1055.7,-126 1052.7,-122 966.3,-122 966.3,-86 1079.7,-86 1079.7,-122"/>
<text text-anchor="middle" x="1023" y="-99.8" font-family="Times,serif" font-size="14.00">EnquiriesModule</text>
</g>
<!-- EnquiriesModule&#45;&gt;AppModule -->
<g id="edge11" class="edge">
<title>EnquiriesModule&#45;&gt;AppModule</title>
<path fill="none" stroke="black" d="M1023,-122.12C1023,-136.78 1023,-155 1023,-155 1023,-155 1100.12,-155 1100.12,-155"/>
<polygon fill="black" stroke="black" points="1100.12,-158.5 1110.12,-155 1100.12,-151.5 1100.12,-158.5"/>
</g>
<!-- MailerModule -->
<g id="node12" class="node">
<title>MailerModule</title>
<polygon fill="#8dd3c7" stroke="black" points="948.37,-122 945.37,-126 924.37,-126 921.37,-122 851.63,-122 851.63,-86 948.37,-86 948.37,-122"/>
<text text-anchor="middle" x="900" y="-99.8" font-family="Times,serif" font-size="14.00">MailerModule</text>
</g>
<!-- MailerModule&#45;&gt;AppModule -->
<g id="edge12" class="edge">
<title>MailerModule&#45;&gt;AppModule</title>
<path fill="none" stroke="black" d="M900,-122.01C900,-138.05 900,-159 900,-159 900,-159 1100.1,-159 1100.1,-159"/>
<polygon fill="black" stroke="black" points="1100.1,-162.5 1110.1,-159 1100.1,-155.5 1100.1,-162.5"/>
</g>
<!-- OrdersModule -->
<g id="node13" class="node">
<title>OrdersModule</title>
<polygon fill="#8dd3c7" stroke="black" points="833.64,-122 830.64,-126 809.64,-126 806.64,-122 736.36,-122 736.36,-86 833.64,-86 833.64,-122"/>
<text text-anchor="middle" x="785" y="-99.8" font-family="Times,serif" font-size="14.00">OrdersModule</text>
</g>
<!-- OrdersModule&#45;&gt;AppModule -->
<g id="edge13" class="edge">
<title>OrdersModule&#45;&gt;AppModule</title>
<path fill="none" stroke="black" d="M785,-122.03C785,-139.06 785,-162 785,-162 785,-162 1100.26,-162 1100.26,-162"/>
<polygon fill="black" stroke="black" points="1100.26,-165.5 1110.26,-162 1100.26,-158.5 1100.26,-165.5"/>
</g>
<!-- PrismaModule -->
<g id="node14" class="node">
<title>PrismaModule</title>
<polygon fill="#8dd3c7" stroke="black" points="718.43,-122 715.43,-126 694.43,-126 691.43,-122 619.57,-122 619.57,-86 718.43,-86 718.43,-122"/>
<text text-anchor="middle" x="669" y="-99.8" font-family="Times,serif" font-size="14.00">PrismaModule</text>
</g>
<!-- PrismaModule&#45;&gt;AppModule -->
<g id="edge14" class="edge">
<title>PrismaModule&#45;&gt;AppModule</title>
<path fill="none" stroke="black" d="M669,-122.27C669,-140.56 669,-166 669,-166 669,-166 1099.98,-166 1099.98,-166"/>
<polygon fill="black" stroke="black" points="1099.98,-169.5 1109.98,-166 1099.98,-162.5 1099.98,-169.5"/>
</g>
<!-- ProductsModule -->
<g id="node15" class="node">
<title>ProductsModule</title>
<polygon fill="#8dd3c7" stroke="black" points="602.04,-122 599.04,-126 578.04,-126 575.04,-122 493.96,-122 493.96,-86 602.04,-86 602.04,-122"/>
<text text-anchor="middle" x="548" y="-99.8" font-family="Times,serif" font-size="14.00">ProductsModule</text>
</g>
<!-- ProductsModule&#45;&gt;AppModule -->
<g id="edge15" class="edge">
<title>ProductsModule&#45;&gt;AppModule</title>
<path fill="none" stroke="black" d="M548,-122.11C548,-141.34 548,-169 548,-169 548,-169 1100.01,-169 1100.01,-169"/>
<polygon fill="black" stroke="black" points="1100.01,-172.5 1110.01,-169 1100.01,-165.5 1100.01,-172.5"/>
</g>
<!-- ReviewsModule -->
<g id="node16" class="node">
<title>ReviewsModule</title>
<polygon fill="#8dd3c7" stroke="black" points="475.76,-122 472.76,-126 451.76,-126 448.76,-122 368.24,-122 368.24,-86 475.76,-86 475.76,-122"/>
<text text-anchor="middle" x="422" y="-99.8" font-family="Times,serif" font-size="14.00">ReviewsModule</text>
</g>
<!-- ReviewsModule&#45;&gt;AppModule -->
<g id="edge16" class="edge">
<title>ReviewsModule&#45;&gt;AppModule</title>
<path fill="none" stroke="black" d="M422,-122.13C422,-142.57 422,-173 422,-173 422,-173 1100.13,-173 1100.13,-173"/>
<polygon fill="black" stroke="black" points="1100.13,-176.5 1110.13,-173 1100.13,-169.5 1100.13,-176.5"/>
</g>
<!-- TagsModule -->
<g id="node17" class="node">
<title>TagsModule</title>
<polygon fill="#8dd3c7" stroke="black" points="350.26,-122 347.26,-126 326.26,-126 323.26,-122 263.74,-122 263.74,-86 350.26,-86 350.26,-122"/>
<text text-anchor="middle" x="307" y="-99.8" font-family="Times,serif" font-size="14.00">TagsModule</text>
</g>
<!-- TagsModule&#45;&gt;AppModule -->
<g id="edge17" class="edge">
<title>TagsModule&#45;&gt;AppModule</title>
<path fill="none" stroke="black" d="M307,-122.04C307,-143.66 307,-177 307,-177 307,-177 1100.1,-177 1100.1,-177"/>
<polygon fill="black" stroke="black" points="1100.1,-180.5 1110.1,-177 1100.1,-173.5 1100.1,-180.5"/>
</g>
<!-- UsersModule -->
<g id="node18" class="node">
<title>UsersModule</title>
<polygon fill="#8dd3c7" stroke="black" points="245.92,-122 242.92,-126 221.92,-126 218.92,-122 154.08,-122 154.08,-86 245.92,-86 245.92,-122"/>
<text text-anchor="middle" x="200" y="-99.8" font-family="Times,serif" font-size="14.00">UsersModule</text>
</g>
<!-- UsersModule&#45;&gt;AppModule -->
<g id="edge18" class="edge">
<title>UsersModule&#45;&gt;AppModule</title>
<path fill="none" stroke="black" d="M200,-122.01C200,-144.49 200,-180 200,-180 200,-180 1100.17,-180 1100.17,-180"/>
<polygon fill="black" stroke="black" points="1100.17,-183.5 1110.17,-180 1100.17,-176.5 1100.17,-183.5"/>
</g>
<!-- WishlistsModule -->
<g id="node19" class="node">
<title>WishlistsModule</title>
<polygon fill="#8dd3c7" stroke="black" points="135.66,-122 132.66,-126 111.66,-126 108.66,-122 24.34,-122 24.34,-86 135.66,-86 135.66,-122"/>
<text text-anchor="middle" x="80" y="-99.8" font-family="Times,serif" font-size="14.00">WishlistsModule</text>
</g>
<!-- WishlistsModule&#45;&gt;AppModule -->
<g id="edge19" class="edge">
<title>WishlistsModule&#45;&gt;AppModule</title>
<path fill="none" stroke="black" d="M80,-122.15C80,-145.76 80,-184 80,-184 80,-184 1100.31,-184 1100.31,-184"/>
<polygon fill="black" stroke="black" points="1100.31,-187.5 1110.31,-184 1100.31,-180.5 1100.31,-187.5"/>
</g>
</g>
</svg>
